<?xml version="1.0" encoding="utf-8"?>
<!-- Generator: Adobe Illustrator 18.0.0, SVG Export Plug-In . SVG Version: 6.00 Build 0)  -->
<!DOCTYPE svg PUBLIC "-//W3C//DTD SVG 1.1//EN" "http://www.w3.org/Graphics/SVG/1.1/DTD/svg11.dtd">
<svg version="1.1" id="Layer_1" xmlns="http://www.w3.org/2000/svg" xmlns:xlink="http://www.w3.org/1999/xlink" x="0px" y="0px"
	 viewBox="0 0 1218.7 215.7" enable-background="new 0 0 1218.7 215.7" xml:space="preserve">
<g>
	<path fill="none" d="M406.6,95.1c-4.7-2.8-9.9-4.2-15.6-4.2c-5.6,0-10.8,1.4-15.6,4.2c-4.8,2.8-8.5,6.6-11.3,11.5
		c-2.8,4.8-4.2,10.1-4.2,15.7c0,5.6,1.4,10.9,4.2,15.7c2.8,4.8,6.5,8.7,11.3,11.5c4.7,2.8,9.9,4.2,15.6,4.2c5.6,0,10.8-1.4,15.6-4.2
		c4.8-2.8,8.5-6.6,11.3-11.4c2.8-4.8,4.2-10.1,4.2-15.8c0-5.7-1.4-11-4.2-15.8C415.1,101.8,411.4,98,406.6,95.1z"/>
	<path fill="#FFFFFF" d="M316.2,141c-2.8,3.4-6.3,6.2-10.2,8.1c-3.9,1.9-8.1,2.9-12.5,2.9c-5.2,0-10.1-1.4-14.6-4
		c-4.5-2.7-8.1-6.4-10.7-10.9c-2.6-4.5-3.9-9.5-3.9-14.8c0-5.3,1.3-10.3,3.9-14.8c2.6-4.6,6.2-8.2,10.6-10.8c4.4-2.6,9.4-4,14.7-4
		c4,0,8,0.8,11.7,2.5c3.8,1.7,7.1,4.1,9.9,7.2l1.2,1.3l14.3-13l-1.2-1.3c-4.6-5.2-10.1-9.2-16.3-11.9c-6.3-2.8-12.9-4.2-19.7-4.2
		c-8.7,0-16.9,2.2-24.4,6.6c-7.4,4.4-13.4,10.4-17.7,17.8c-4.3,7.5-6.5,15.7-6.5,24.6c0,8.8,2.2,17.1,6.5,24.6
		c4.3,7.5,10.3,13.5,17.7,17.9c7.4,4.4,15.6,6.7,24.4,6.7c7.4,0,14.5-1.6,21.1-4.8c6.6-3.2,12.3-7.7,16.8-13.5l1.1-1.4l-15.2-12.1
		L316.2,141z"/>
	<path fill="#FFFFFF" d="M414.5,81.5c-7.2-4.2-15-6.4-23.5-6.4c-8.5,0-16.3,2.1-23.5,6.4c-7.2,4.2-12.9,10-17.1,17.2
		c-4.2,7.2-6.3,15.1-6.3,23.7c0,8.6,2.1,16.4,6.3,23.7c4.2,7.2,9.9,13,17.1,17.2c7.2,4.2,15,6.4,23.5,6.4c8.5,0,16.3-2.1,23.5-6.4
		c7.2-4.2,12.9-10,17.1-17.2c4.2-7.2,6.3-15.1,6.3-23.7c0-8.5-2.1-16.4-6.3-23.7C427.4,91.4,421.7,85.7,414.5,81.5z M417.9,138.1
		c-2.8,4.8-6.5,8.6-11.3,11.4c-4.7,2.8-9.9,4.2-15.6,4.2c-5.6,0-10.8-1.4-15.6-4.2c-4.8-2.8-8.5-6.6-11.3-11.5
		c-2.8-4.8-4.2-10.1-4.2-15.7c0-5.6,1.4-10.9,4.2-15.7c2.8-4.8,6.5-8.7,11.3-11.5c4.7-2.8,9.9-4.2,15.6-4.2c5.6,0,10.8,1.4,15.6,4.2
		c4.8,2.8,8.5,6.6,11.3,11.4c2.8,4.8,4.2,10.1,4.2,15.8C422.1,128.1,420.7,133.3,417.9,138.1z"/>
	<rect x="456.4" y="74.2" fill="#FFFFFF" width="19.5" height="96.3"/>
	<polygon fill="#FFFFFF" points="552.2,127.5 495,70.3 495,170.5 514.3,170.5 514.3,117.9 571.6,175.1 571.6,74.2 552.2,74.2 	"/>
	<g>
		<linearGradient id="SVGID_1_" gradientUnits="userSpaceOnUse" x1="631.4998" y1="120.1592" x2="1039.4998" y2="106.1592">
			<stop  offset="0" style="stop-color:#63D6FD"/>
			<stop  offset="1" style="stop-color:#F917C7"/>
		</linearGradient>
		<polygon fill="url(#SVGID_1_)" points="593.5,69 593.5,170.5 612.9,170.5 612.9,129.4 643.1,171.4 673,129.6 673,170.5 
			692.4,170.5 692.4,69 643.1,138 		"/>
		<linearGradient id="SVGID_2_" gradientUnits="userSpaceOnUse" x1="631.7014" y1="126.0338" x2="1039.7014" y2="112.0338">
			<stop  offset="0" style="stop-color:#63D6FD"/>
			<stop  offset="1" style="stop-color:#F917C7"/>
		</linearGradient>
		<polygon fill="url(#SVGID_2_)" points="708.5,170.5 730,170.5 753.9,118.8 776.7,170.5 797.9,170.5 754.4,71.6 		"/>
		<linearGradient id="SVGID_3_" gradientUnits="userSpaceOnUse" x1="631.7934" y1="128.7156" x2="1039.7935" y2="114.7156">
			<stop  offset="0" style="stop-color:#63D6FD"/>
			<stop  offset="1" style="stop-color:#F917C7"/>
		</linearGradient>
		<polygon fill="url(#SVGID_3_)" points="793.7,93.7 821.5,93.7 821.5,170.5 840.8,170.5 840.8,93.7 868.7,93.7 868.7,74.2 
			793.7,74.2 		"/>
		<linearGradient id="SVGID_4_" gradientUnits="userSpaceOnUse" x1="631.915" y1="132.2579" x2="1039.9149" y2="118.2579">
			<stop  offset="0" style="stop-color:#63D6FD"/>
			<stop  offset="1" style="stop-color:#F917C7"/>
		</linearGradient>
		<path fill="url(#SVGID_4_)" d="M945.5,141c-2.8,3.4-6.3,6.2-10.2,8.1c-3.9,1.9-8.1,2.9-12.5,2.9c-5.2,0-10.1-1.4-14.6-4
			c-4.5-2.7-8.1-6.4-10.7-10.9c-2.6-4.5-3.9-9.5-3.9-14.8c0-5.3,1.3-10.3,3.9-14.8c2.6-4.6,6.2-8.2,10.6-10.8c4.4-2.6,9.4-4,14.7-4
			c4,0,8,0.8,11.7,2.5c3.8,1.7,7.1,4.1,9.9,7.2l1.2,1.3l14.3-13l-1.2-1.3c-4.6-5.2-10.1-9.2-16.3-11.9c-6.3-2.8-12.9-4.2-19.7-4.2
			c-8.7,0-16.9,2.2-24.4,6.6c-7.4,4.4-13.4,10.4-17.7,17.8c-4.3,7.5-6.5,15.7-6.5,24.6c0,8.8,2.2,17.1,6.5,24.6
			c4.3,7.5,10.3,13.5,17.7,17.9c7.4,4.4,15.6,6.7,24.4,6.7c7.4,0,14.5-1.6,21.1-4.8c6.6-3.2,12.3-7.7,16.8-13.5l1.1-1.4l-15.2-12.1
			L945.5,141z"/>
		<linearGradient id="SVGID_5_" gradientUnits="userSpaceOnUse" x1="632.0239" y1="135.4336" x2="1040.0239" y2="121.4336">
			<stop  offset="0" style="stop-color:#63D6FD"/>
			<stop  offset="1" style="stop-color:#F917C7"/>
		</linearGradient>
		<polygon fill="url(#SVGID_5_)" points="1030.8,74.2 1030.8,112.5 995.6,112.5 995.6,74.2 976.3,74.2 976.3,170.5 995.6,170.5 
			995.6,132 1030.8,132 1030.8,170.5 1050.3,170.5 1050.2,74.2 		"/>
	</g>
	<path fill="#FFFFFF" d="M1077.4,152.3c-2.4,0-4.6,0.9-6.4,2.7c-1.8,1.8-2.7,4-2.7,6.4c0,2.5,0.9,4.7,2.6,6.5
		c1.8,1.8,3.9,2.6,6.5,2.6c2.6,0,4.7-0.9,6.5-2.6c1.7-1.8,2.6-3.9,2.6-6.5c0-2.5-0.9-4.6-2.7-6.4
		C1082,153.2,1079.9,152.3,1077.4,152.3z"/>
	<polygon fill="#FFFFFF" points="1098.2,170.5 1119.6,170.5 1143.5,118.8 1166.3,170.5 1187.6,170.5 1144,71.6 	"/>
	<rect x="1199.2" y="74.2" fill="#FFFFFF" width="19.5" height="96.3"/>
	<g>
		<linearGradient id="SVGID_6_" gradientUnits="userSpaceOnUse" x1="27.4564" y1="152.4894" x2="174.1231" y2="53.1561">
			<stop  offset="0" style="stop-color:#63D6FD"/>
			<stop  offset="1" style="stop-color:#F917C7"/>
		</linearGradient>
		<polygon fill="url(#SVGID_6_)" points="161,146.9 93.4,185.9 25.8,146.9 25.8,68.8 93.4,29.8 146.9,60.7 173.3,46.1 93.4,0 
			1,53.4 0,53.9 0,161.8 93.4,215.7 186.8,161.8 186.8,131.9 161.9,146.3 		"/>
		<linearGradient id="SVGID_7_" gradientUnits="userSpaceOnUse" x1="27.8644" y1="153.0918" x2="174.531" y2="53.7584">
			<stop  offset="0" style="stop-color:#63D6FD"/>
			<stop  offset="1" style="stop-color:#F917C7"/>
		</linearGradient>
		<polygon fill="url(#SVGID_7_)" points="93.5,104.1 39.1,74 39.1,103.4 93.5,133.5 161,96.6 161,131.9 186.8,117 186.8,52.9 		"/>
	</g>
</g>
</svg>
